<svg width="22" height="22" viewBox="0 0 22 22" fill="none" xmlns="http://www.w3.org/2000/svg">
<path d="M17.75 9.50002H11.75C11.3522 9.50002 10.9706 9.65805 10.6893 9.93935C10.408 10.2207 10.25 10.6022 10.25 11V15.5H2V6.95002L11 2.10501L20.3975 7.16002L21.1025 5.84001L11.3525 0.590014C11.244 0.532234 11.1229 0.502014 11 0.502014C10.8771 0.502014 10.756 0.532234 10.6475 0.590014L0.8975 5.84001C0.777741 5.90378 0.677523 5.99884 0.607523 6.11507C0.537523 6.2313 0.500362 6.36434 0.5 6.50001V21.5H2V17H20V21.5H21.5V13.25C21.5 12.2555 21.1049 11.3016 20.4016 10.5984C19.6984 9.8951 18.7446 9.50002 17.75 9.50002ZM11.75 15.5V11H17.75C18.3467 11 18.919 11.2371 19.341 11.659C19.7629 12.081 20 12.6533 20 13.25V15.5H11.75Z" fill="#28A745"/>
</svg>
