<svg width="24" height="24" viewBox="0 0 24 24" fill="none" xmlns="http://www.w3.org/2000/svg">
<path d="M14.0595 4.776C14.5525 4.65344 15.0629 4.6164 15.5685 4.6665L15.63 4.6695C16.3605 4.6935 16.83 4.7655 17.493 5.052C18.375 5.43 19.239 6.108 20.106 7.146C22.365 9.8475 22.0455 15.8835 19.2915 19.374C19.1115 19.602 18.5415 20.349 18.5715 20.31C18.352 20.6022 18.1166 20.8821 17.8665 21.1485C17.1345 21.912 16.3365 22.302 15.2865 22.3215C14.5515 22.3365 14.031 22.197 13.311 21.882L13.158 21.8145C12.666 21.5985 12.441 21.5355 12.0495 21.5355C11.625 21.5355 11.379 21.603 10.851 21.8325L10.6995 21.8985C10.0335 22.185 9.56696 22.3215 8.91446 22.3485C7.17746 22.413 6.17396 21.456 4.67996 19.251C2.41496 15.921 1.57196 11.064 3.38996 7.851C4.47446 5.931 6.43496 4.719 8.56196 4.686C9.33146 4.6725 9.97496 4.8465 10.8975 5.2185C11.5335 5.4735 11.712 5.541 11.7735 5.553C12.1545 5.0805 12.4245 4.686 12.5835 4.3755C12.9015 3.759 13.221 2.97 13.5375 2.013C13.5686 1.91943 13.6178 1.83291 13.6824 1.75838C13.747 1.68384 13.8256 1.62275 13.9137 1.5786C14.0019 1.53445 14.0979 1.50809 14.1963 1.50104C14.2946 1.49399 14.3934 1.50637 14.487 1.5375C14.5805 1.56862 14.667 1.61787 14.7416 1.68243C14.8161 1.74699 14.8772 1.8256 14.9214 1.91377C14.9655 2.00194 14.9919 2.09794 14.9989 2.1963C15.006 2.29465 14.9936 2.39343 14.9625 2.487C14.667 3.375 14.367 4.137 14.0595 4.776ZM12.852 6.606C12.5115 7.023 12.1065 7.482 11.6355 7.9845C11.5681 8.0564 11.4872 8.11432 11.3975 8.15497C11.3077 8.19561 11.2108 8.21818 11.1124 8.22139C11.0139 8.22459 10.9157 8.20836 10.8235 8.17364C10.7313 8.13891 10.6469 8.08637 10.575 8.019C10.5031 7.95163 10.4451 7.87076 10.4045 7.78101C10.3638 7.69125 10.3413 7.59437 10.3381 7.49589C10.3349 7.39742 10.3511 7.29927 10.3858 7.20707C10.4205 7.11486 10.4731 7.0304 10.5405 6.9585L10.8285 6.648C10.1715 6.3855 9.39296 6.0225 8.58596 6.036C6.93596 6.0615 5.41496 7.011 4.56296 8.5155C2.84996 11.5455 4.12496 16.035 5.79596 18.492C6.61196 19.695 7.58546 21.0465 8.86496 20.9985C10.095 20.949 10.56 20.1855 12.0495 20.1855C13.539 20.1855 13.9545 20.9985 15.2595 20.9715C16.5825 20.946 17.0355 20.0565 18.2325 18.537C20.7615 15.3315 20.7615 10.035 19.071 8.0115C17.379 5.9895 16.149 6.0405 15.516 6.0165C14.544 5.916 13.6035 6.3105 12.852 6.606Z" fill="#28A745"/>
</svg>
