<svg width="24" height="24" viewBox="0 0 24 24" fill="none" xmlns="http://www.w3.org/2000/svg">
<path d="M22 12C22 6.48 17.52 2 12 2C6.48 2 2 6.48 2 12C2 17.52 6.48 22 12 22M8.00001 3H9.00001C7.05001 8.84 7.05001 15.16 9.00001 21H8.00001M15 3C15.97 5.92 16.46 8.96 16.46 12M3 16V15C5.92 15.97 8.96 16.46 12 16.46M3 8.99998C8.84 7.04998 15.16 7.04998 21 8.99998M22 22L21 21M21.4 18.2C21.4 19.9673 19.9673 21.4 18.2 21.4C16.4327 21.4 15 19.9673 15 18.2C15 16.4327 16.4327 15 18.2 15C19.9673 15 21.4 16.4327 21.4 18.2Z" stroke="#28A745" stroke-width="1.5" stroke-linecap="round" stroke-linejoin="round"/>
</svg>
