<svg width="128" height="102" viewBox="0 0 128 102" fill="none" xmlns="http://www.w3.org/2000/svg">
    <defs>
        <clipPath id="clip0_87_2345">
            <rect width="128" height="102" fill="white" />
        </clipPath>
    </defs>
    <g clip-path="url(#clip0_87_2345)">
        <path
            d="M127.089 97.9067C127.089 99.3929 114.698 100.766 94.7447 101.496C74.7917 102.214 50.4132 102.177 31.1051 101.383C11.797 100.59 0.593977 99.1662 1.87107 97.6799L64.4233 97.9067H127.089Z"
            fill="#F9F1CB" />
        <path
            d="M58.5439 68.2309C58.5439 68.2309 61.8947 76.0025 64.5374 77.577C67.1675 79.1514 88.0055 79.4915 90.016 79.4915C92.0265 79.4915 94.1128 79.4159 94.1128 79.4159L93.8599 74.0502C93.8599 74.0502 72.8701 73.7101 70.9229 73.5463C68.9883 73.3826 66.8766 72.4757 65.7766 69.6039C64.6765 66.7572 58.7589 54.9172 58.7589 54.9172L58.5439 68.2309Z"
            fill="#F9F1CB" />
        <path
            d="M70.0879 42.9011C70.0879 42.9011 74.4882 48.5062 78.8505 47.6371C83.2255 46.7554 87.2464 45.0676 89.788 46.831C92.3295 48.5818 92.8732 51.3151 92.8732 51.3151L92.0134 53.7838H85.8303C85.8303 53.7838 85.8682 52.0834 84.3509 51.6425C82.8462 51.2017 82.1507 50.0177 81.4426 49.4509C80.7345 48.8715 78.8126 50.3326 78.5344 50.8364C78.2436 51.3402 77.5734 50.4963 76.8906 50.7734C76.2078 51.0379 75.4744 52.0708 75.4744 52.0708C75.4744 52.0708 74.5387 52.6628 73.2869 49.8917C72.0225 47.1081 70.0879 42.9011 70.0879 42.9011Z"
            fill="#F9F1CB" />
        <path
            d="M44.8372 75.0579C44.8372 75.0579 40.9553 81.5951 39.3242 84.2654C37.693 86.9356 36.3021 86.8853 36.3021 86.8853L37.4022 73.8865L35.0503 74.2896L35.1514 68.9742C35.1514 68.9742 40.8289 63.2432 41.2335 62.7015C41.6381 62.1473 42.5991 61.0515 42.5991 61.0515C42.5991 61.0515 43.8509 67.3997 44.0153 70.0448C44.1923 72.6899 44.8372 75.0579 44.8372 75.0579Z"
            fill="#F9F1CB" />
        <path
            d="M63.8164 94.153C63.8164 94.153 64.0566 96.7477 66.9649 96.5839C69.8731 96.4202 74.6527 96.5839 74.6527 96.5839C74.6527 96.5839 78.8128 97.5664 78.9519 93.9137C79.0909 90.2735 80.1025 87.4395 79.5335 86.4571C78.9519 85.4746 77.2322 86.3563 77.2322 86.3563C77.2322 86.3563 77.5989 91.8858 76.4482 92.8053C75.2976 93.7121 72.1112 93.6869 69.5696 93.9137C67.0281 94.153 63.8164 94.153 63.8164 94.153Z"
            fill="#F9F1CB" />
        <path
            d="M77.1438 53.3429C77.1185 53.1666 76.6254 51.4157 77.3967 51.0505C78.168 50.6852 77.5484 52.7131 78.3071 52.2849C79.0658 51.8566 79.6601 50.6096 80.6463 50.2821C81.6326 49.9672 81.9866 49.9042 82.5303 50.597C83.0741 51.3024 83.8707 51.126 84.6293 51.8566C85.388 52.5872 86.0581 53.683 85.8305 53.7712C85.6029 53.8593 77.4852 53.8215 77.4346 53.8215C77.3967 53.8215 77.1438 53.3429 77.1438 53.3429Z"
            fill="#9A702D" />
        <path
            d="M49.9455 48.9849C49.8317 48.9849 46.4304 46.8563 44.7739 46.2895C43.1175 45.7226 43.0922 45.1684 41.8025 46.1257C40.5128 47.083 38.4264 49.3754 37.3769 51.9449C36.3274 54.527 36.5803 56.1141 35.0756 58.9607C33.5709 61.7948 31.434 65.1452 30.5742 65.901C29.7144 66.6567 30.4351 67.2613 30.511 67.2865C30.5742 67.2991 30.1443 68.2186 26.6291 66.1907C23.114 64.1628 20.5219 62.7268 19.1057 61.6058C17.6895 60.4848 15.9951 61.3161 15.0594 62.4371C14.1237 63.5582 15.1732 64.8933 16.1848 65.8506C17.1964 66.8078 24.3025 71.8587 26.0222 72.2618C27.7545 72.6649 29.5753 72.7908 31.1053 72.0225C32.6353 71.2667 39.8426 64.2257 39.8426 64.2257C39.8426 64.2257 42.4347 61.0516 42.6876 60.4848C42.9405 59.9054 41.9795 60.0692 40.3231 58.9607C38.6667 57.8649 38.3126 57.2225 39.223 57.3107C40.1334 57.3989 41.0565 58.608 42.3589 58.6458C43.6612 58.6836 44.3567 59.5401 43.9141 60.2455C43.4716 60.9508 44.2555 63.344 44.5969 66.0521C44.9383 68.7476 45.8361 74.1889 46.1016 76.6451C46.3672 79.1138 46.5062 80.4742 46.3039 82.6281C46.1016 84.7819 45.2418 85.4243 46.2154 86.6965C47.2017 87.956 51.8928 87.5782 52.0951 85.059C52.2974 82.5399 52.3101 79.5043 52.3101 79.5043L52.8538 68.0548L52.8158 59.6157L52.7526 53.8595C52.74 53.8721 52.0572 50.9751 49.9455 48.9849Z"
            fill="#32B141" />
        <path
            d="M43.3706 44.2362C43.3706 44.2362 45.4064 42.8381 48.6686 41.6163C51.9182 40.4071 55.092 39.4247 56.0909 39.8277C57.0898 40.2308 56.7358 42.624 57.2036 44.274C57.6588 45.924 58.3163 48.0149 58.2404 49.0351C58.1519 50.0428 58.2025 50.7859 58.683 50.9749C59.1635 51.1638 59.3152 50.9497 59.6313 51.9573C59.9474 52.965 60.3647 53.4814 60.0107 53.5444C59.6693 53.6074 53.9919 53.4688 53.2838 53.368C52.5757 53.2547 52.0447 51.0378 50.5653 49.3122C49.0606 47.574 43.3706 44.2362 43.3706 44.2362Z"
            fill="#FFC007" />
        <path
            d="M62.7795 34.5501C62.6657 34.4997 59.1884 33.4291 58.3666 35.2932C57.5573 37.1574 57.1653 38.417 57.9872 42.5232C58.7965 46.6294 59.1379 48.1787 59.1379 49.0856C59.1379 49.9925 60.1621 49.7279 61.6288 49.4886C63.0956 49.2493 63.8543 48.9848 63.829 47.9645C63.8037 46.9443 63.8037 41.5659 63.829 40.9991C63.8543 40.4323 64.6003 40.5205 64.6129 41.5659C64.6382 42.6114 64.1704 43.9213 64.1704 43.9213C64.1704 43.9213 65.9785 42.4728 65.5739 44.2992C65.1693 46.1382 64.8026 45.4202 65.0049 47.4481C65.1946 49.476 65.321 50.0428 65.1693 50.5719C65.0302 51.1009 68.0143 52.1463 69.342 52.0078C70.657 51.8692 73.4135 49.9295 73.4135 49.9295C73.4135 49.9295 71.6939 45.4706 69.1017 41.44C66.5096 37.4093 62.7795 34.5501 62.7795 34.5501Z"
            fill="#FFC007" />
        <path
            d="M45.5708 41.6037C45.5708 41.6037 45.4317 38.7319 46.8226 37.0819C48.2134 35.4319 49.5032 35.2303 50.4136 35.8223C51.324 36.4143 53.3976 38.7697 53.3976 38.7697C53.3976 38.7697 47.7962 40.0167 45.5708 41.6037Z"
            fill="#FFC007" />
        <path
            d="M59.9852 32.8245C59.353 32.8119 58.6449 32.9127 58.2403 33.0891C57.7345 33.3032 56.9379 34.1849 56.6344 34.8776C56.3183 35.583 56.0275 36.9559 56.0275 37.7243V38.3289H55.1677C54.6998 38.3289 54.194 38.3667 54.055 38.4044C53.8526 38.4548 53.6377 38.2911 53.056 37.5857C51.6904 35.9483 49.9329 34.7643 48.6178 34.6005C47.0626 34.4116 45.5073 35.4067 44.913 37.0063C44.3946 38.3918 44.2302 39.2358 44.2176 40.6843C44.2049 42.2839 44.1038 42.5232 43.56 42.2209C43.3704 42.1202 42.9658 42.0446 42.6623 42.0446C42.2197 42.0446 42.0427 42.1076 41.8657 42.3469C41.5749 42.6996 41.5496 43.2538 41.8025 43.7324L41.9921 44.0851L41.145 44.6645C38.8437 46.239 36.4791 49.5894 35.3791 52.8391C35.202 53.3807 34.8859 54.4766 34.6836 55.2953C34.0767 57.7514 33.8617 58.1923 31.2317 62.6008C29.3603 65.7245 29.3224 65.7875 29.0442 65.5986C28.8925 65.4978 27.8556 64.994 26.7555 64.4775C23.5439 62.9787 21.192 61.5176 19.8896 60.2202C19.1815 59.5148 18.6252 59.2125 17.8159 59.1118C17.209 59.0362 17.1963 59.0362 16.9687 58.3686C16.8423 58.0034 16.6779 57.6381 16.602 57.5625C16.5135 57.4743 16.5135 57.3232 16.5894 57.1091C16.7538 56.6682 16.4124 55.7865 15.9319 55.4464C14.933 54.7411 12.8087 54.3758 10.7982 54.5773C8.07966 54.8544 4.62772 55.8621 3.69203 56.6556C3.12303 57.1468 2.9713 57.5499 3.18625 58.0537C3.26212 58.2553 3.3127 58.5954 3.30005 58.8221C3.26212 59.3763 3.55294 59.7919 4.21046 60.132C4.70359 60.3839 5.00706 60.4217 7.71297 60.5099C10.6086 60.5981 12.1385 60.7492 12.4294 60.9759C12.5052 61.0389 12.834 61.2908 13.1627 61.5553L13.7444 62.0214L13.5421 62.6386C13.2133 63.6588 13.3903 64.0745 14.4778 64.8302C14.9709 65.1829 15.8307 65.8631 16.3744 66.3543C19.5735 69.2135 24.7704 72.4632 26.9199 72.9545C28.0706 73.219 29.55 73.0426 30.8524 72.4758C31.5604 72.2113 33.0398 71.1659 33.2927 70.9769C34.456 70.0952 35.6067 69.1254 36.555 68.2311C37.0229 67.7902 38.3252 66.4803 38.3252 66.4803L38.7299 66.0394C39.5012 65.2081 41.5369 62.8023 41.9668 62.2103C42.3335 61.7065 42.4094 61.6435 42.4979 61.845C42.6244 62.1599 43.3957 67.2612 43.8003 70.4479C43.9773 71.8712 44.1543 73.1182 44.1796 73.219C44.2049 73.3197 44.2934 74.0629 44.3693 74.8564C44.4452 75.6499 44.5842 76.9221 44.6854 77.6652C44.9636 79.7057 44.9256 81.5321 44.5337 84.0765C44.2049 86.3185 44.1923 87.1624 44.521 87.5781C44.6095 87.6914 44.9383 87.9056 45.2797 88.0693C45.6084 88.233 45.874 88.3842 45.874 88.4094C45.874 88.4346 45.5452 89.1147 45.1532 89.9209C44.521 91.2182 44.4325 91.4953 44.3819 92.3392C44.3187 93.498 44.559 94.5057 45.2544 95.992C45.5326 96.5714 45.7475 97.1004 45.7475 97.1634C45.7475 97.2264 43.7244 97.2642 40.8288 97.2516C37.2884 97.239 34.5192 97.2642 34.5192 97.2642H29.2591C26.3636 97.2642 16.2353 97.2768 9.597 97.2894L0.670004 97.3271C0.670004 97.3271 -0.0380859 97.3901 -0.0380859 97.642C-0.0380859 97.894 0.670004 97.9569 0.670004 97.9569L8.31991 98.0199C19.9908 98.1207 119.945 98.1333 123.827 98.0451L127.241 97.9569C127.241 97.9569 127.962 97.9065 127.962 97.642C127.962 97.3775 127.241 97.3271 127.241 97.3271L118.226 97.2894C113.358 97.2768 109.362 97.2138 109.223 97.1634L108.641 97.1886C108.641 97.1886 100.397 97.239 99.3854 97.2264L97.5266 97.1886H96.6415L77.5357 97.239L58.392 97.2768H57.5069H55.0033H52.8411C52.8411 97.2768 52.5123 95.5134 51.3617 95.1985C50.78 95.0473 50.5019 93.6744 50.4133 91.5457C50.3754 90.5758 50.2995 89.5556 50.2616 89.2785C50.1984 88.7999 50.2237 88.7621 50.6662 88.5227C51.349 88.1575 52.3227 87.0113 52.5756 86.2681C52.7399 85.7643 52.7652 85.399 52.702 84.4921C52.5882 83.0562 52.6008 81.2298 52.7526 78.1817C53.1446 70.259 53.1951 68.2311 53.1951 61.2908V53.7208C53.0055 52.8643 53.9664 52.9021 54.2067 52.9273C54.194 52.9021 54.2067 52.8643 54.2193 52.8265C54.6113 51.8944 54.6113 48.9974 54.232 47.8008C53.9664 46.9821 53.4354 46.3145 53.2078 46.5035C53.0687 46.6168 53.094 46.768 53.271 47.297C53.5998 48.2291 53.8147 50.0555 53.7262 51.1009C53.6377 52.159 53.3848 52.9777 53.1572 52.9777C53.0687 52.9777 52.8664 52.6628 52.702 52.2723C52.0445 50.6601 50.5145 48.6699 48.9845 47.4482C47.2902 46.0878 45.0015 44.7149 43.4715 44.1481C42.8014 43.8962 42.3715 43.4553 42.3715 43.0019C42.3715 42.75 42.4347 42.6996 42.814 42.6996C43.0543 42.6996 43.3957 42.7626 43.56 42.8381C43.8382 42.9641 44.1796 42.8381 46.6326 41.6541C49.9455 40.0671 50.8433 39.727 52.6767 39.4247C54.1688 39.1728 56.0275 38.9838 56.0275 39.072C56.0275 39.0972 56.0907 39.4373 56.1539 39.8026C56.2298 40.1804 56.3689 41.1377 56.47 41.9312C56.7103 43.7954 57.0896 45.7855 57.4816 47.3222C57.7345 48.3299 57.7851 48.7077 57.7092 49.4635C57.646 50.131 57.6713 50.4711 57.7977 50.6978C57.9747 51.0127 58.7587 51.4914 59.1127 51.4914C59.2392 51.4914 59.3024 51.6173 59.3024 51.8692C59.3024 52.0834 59.3909 52.4486 59.4794 52.688L59.6565 53.3178L60.4783 53.3429C60.2255 52.9273 60.0358 52.0582 60.0737 51.6173C60.1117 51.0631 60.1117 51.0631 60.7439 50.8994C61.1485 50.7986 61.6922 50.7734 62.2612 50.8238C63.0072 50.8994 63.2348 50.975 63.7153 51.3402C64.0314 51.5795 64.9798 52.1212 65.8396 52.5368C66.6868 52.9525 67.3822 53.3052 67.3822 53.3429L70.6066 53.3807L71.3147 53.091C72.1745 52.7384 73.0849 52.2219 73.3125 51.9448C73.5148 51.6929 73.6918 51.7307 73.6918 52.562V53.5571H74.4505V52.6124V51.8441L74.754 52.0708C74.9183 52.1967 75.3482 52.5368 75.7149 52.8391L76.6127 53.5319L77.9783 53.6326L76.8656 52.8265C76.3724 52.4738 75.9552 52.1086 75.9299 52.0204C75.854 51.8189 76.3724 51.0757 76.6759 50.975C76.815 50.9246 77.1311 50.9498 77.3714 51.0253C77.7381 51.1387 77.8139 51.2269 77.8139 51.5292C77.8139 52.0708 78.0668 52.0582 78.3956 51.5166C78.8128 50.8364 79.4956 50.1059 79.9129 49.8917C80.1026 49.791 80.4945 49.7154 80.7854 49.7154C81.2153 49.7154 81.3923 49.8036 81.8475 50.2192C82.151 50.4963 82.4671 50.8868 82.5429 51.0883C82.6947 51.441 83.1246 51.7307 83.5292 51.7307C84.0097 51.7307 84.8316 52.2723 85.1351 52.7761C85.2994 53.0532 85.5776 53.6326 85.5523 53.7082L86.311 53.6452C86.2604 53.5571 86.0455 53.1162 85.9949 52.9399C85.7293 51.9448 85.1224 51.4284 83.8453 51.1009C83.3901 50.9875 83.2384 50.8616 82.8843 50.2948C82.3027 49.3753 81.7969 49.0478 80.8992 48.9848C79.9761 48.9219 79.4451 49.1612 78.699 49.9925L78.1427 50.6097L77.8139 50.3956C77.0552 49.9043 75.8287 50.2696 75.462 51.1009C75.3735 51.3024 75.2597 51.4788 75.2218 51.4788C74.9689 51.4788 74.2861 50.4459 73.7171 49.2116C73.3504 48.418 72.8826 47.3978 72.6676 46.9443C72.4653 46.5035 71.9469 45.5966 71.5296 44.929C71.1123 44.2614 70.3916 43.0774 69.9491 42.2713C69.4939 41.4778 68.8237 40.3568 68.457 39.79L66.5098 37.1701C65.1442 35.4822 63.6647 34.1597 62.4509 33.5677C61.8692 33.278 61.1106 32.9883 60.7565 32.9127C60.5416 32.8497 60.276 32.8245 59.9852 32.8245ZM59.7323 33.5803C61.2117 33.5677 62.6532 34.336 64.3728 36.0616C66.3707 38.0392 66.965 38.9083 71.2767 45.9871C71.5675 46.4531 72.0354 47.4104 72.3389 48.0905C72.6297 48.7833 73.0343 49.665 73.2366 50.0555L73.6033 50.7734L73.1355 51.1765C72.3894 51.8315 70.7709 52.5242 69.6456 52.6754C69.1019 52.7509 68.5076 52.8013 68.3179 52.8013C67.9133 52.7887 66.3707 52.096 64.8407 51.2647L63.7406 50.6601L64.0314 50.0681C64.4613 49.199 64.5119 48.7959 64.297 47.423C64.0188 45.5714 64.0441 45.3447 64.5752 44.6015C65.0683 43.9088 65.5108 42.8003 65.4097 42.5232C65.2706 42.1706 64.9924 42.3847 64.5878 43.1404L64.1705 43.9214L64.1073 41.969C64.0567 40.3568 64.0061 40.0167 63.8544 40.0167C63.5889 40.0167 63.5004 40.6465 63.3992 43.3546C63.336 44.929 63.3613 46.0248 63.4624 46.7554C63.7533 48.8463 63.7533 49.0352 63.4372 49.6524L63.1463 50.2192L62.0715 50.1814C60.8577 50.131 60.0358 50.3074 59.6817 50.6853C59.4162 50.975 59.0369 50.9246 58.6196 50.5593C58.4173 50.383 58.4047 50.2318 58.4679 49.4761C58.5311 48.7329 58.4805 48.3299 58.1644 47.0199C57.6839 45.0802 57.2287 42.498 56.9379 40.1049C56.7609 38.6186 56.7482 38.0895 56.862 37.2078C57.0391 35.8223 57.431 34.7895 58.0127 34.1849C58.4173 33.7566 58.569 33.6936 59.2518 33.6181C59.4289 33.5929 59.5806 33.5803 59.7323 33.5803ZM48.1247 35.457C48.6811 35.4444 49.288 35.5956 49.857 35.8979C50.4892 36.238 52.7399 38.2407 52.7399 38.4674C52.7399 38.5304 52.5882 38.606 52.3859 38.6438C52.1962 38.6815 51.5261 38.8579 50.8938 39.0342C50.1984 39.2232 48.8201 39.8026 47.3028 40.5331L44.8498 41.7297L44.9256 40.6591C45.0521 38.8201 45.6084 37.0693 46.3292 36.2254C46.7591 35.7216 47.404 35.4696 48.1247 35.457ZM42.7255 44.5511C42.814 44.5511 42.9025 44.5889 43.029 44.6393C43.6865 44.9038 45.3682 45.8611 46.7212 46.7554C47.8718 47.5111 50.3248 49.6776 50.3248 49.9295C50.3248 49.9925 50.1857 50.2318 50.0214 50.4837C49.3006 51.5418 49.3133 53.9349 50.034 55.4086C50.4386 56.24 51.2985 57.0335 52.0065 57.2476L52.5123 57.3988L52.4365 63.5707C52.3859 67.3998 52.2847 70.851 52.1456 72.6522C52.0065 74.5793 51.918 77.2874 51.9054 80.7134C51.8801 85.7013 51.8801 85.8902 51.6146 86.3941C51.2605 87.0742 50.4513 87.7796 49.857 87.9559C48.6052 88.3086 46.6327 88.0441 45.482 87.3639C44.9509 87.049 44.9256 86.7845 45.3303 84.1898C45.7096 81.7085 45.7475 79.5798 45.4694 77.5267C45.3682 76.7836 45.0774 74.4785 44.8245 72.4002C44.3061 68.0169 43.598 63.2054 43.2313 61.5302C43.029 60.6233 43.0163 60.321 43.1301 60.1824C43.3451 59.9179 43.1807 59.6282 42.814 59.6282C41.8783 59.6282 39.7035 58.482 38.7804 57.4995C38.3758 57.0713 38.1103 57.0083 37.9965 57.298C37.7815 57.8648 39.5517 59.3259 41.2967 60.0187C41.7772 60.2076 42.1944 60.4343 42.2197 60.5099C42.3335 60.85 38.5149 65.2207 35.771 67.891C32.9766 70.5991 31.2823 71.7453 29.373 72.1861C27.8809 72.5388 27.2613 72.4128 25.0865 71.3044C22.3426 69.9189 18.2458 67.1478 15.9825 65.1577C15.4893 64.7169 14.8571 64.1878 14.6042 63.9737L14.1237 63.5833L14.2881 62.8653C14.4272 62.2607 14.5789 62.0088 15.2111 61.3412C15.9951 60.5099 17.0067 59.8927 17.601 59.8927C18.1447 59.8927 18.7769 60.1446 19.1056 60.5099C20.446 61.9458 22.6082 63.3439 26.2498 65.1199C27.843 65.9009 29.55 66.7952 30.0431 67.11C30.5868 67.4627 30.9788 67.6391 31.042 67.5635C31.2317 67.3746 30.8903 66.8833 30.2834 66.4299L29.7396 66.0268L30.4098 65.1325C30.7765 64.6413 31.5099 63.5581 32.0283 62.7267C33.8744 59.7668 34.7974 57.8396 35.0503 56.3785C35.2273 55.3205 36.0366 53.0029 36.7573 51.4536C37.8953 49.0352 39.8679 46.5287 41.7392 45.1431C42.3335 44.6897 42.5358 44.5385 42.7255 44.5511ZM50.8812 50.7986C51.0961 50.7986 51.9054 52.2093 52.2215 53.154C52.4238 53.7586 52.487 54.2498 52.487 55.3205C52.487 56.8571 52.4365 56.9453 51.7916 56.3533C50.8685 55.522 50.3375 54.2498 50.3375 52.8769C50.3375 51.9826 50.6409 50.7986 50.8812 50.7986ZM11.6075 55.3583C13.4536 55.3331 15.1353 55.7235 15.6158 56.3659C15.7549 56.5548 15.8434 56.7312 15.8181 56.769C15.7928 56.7942 15.4261 56.706 15.0088 56.5548C14.4272 56.3533 13.8455 56.2777 12.4799 56.24C10.2292 56.177 8.2314 56.4919 5.96804 57.2602C5.09557 57.5625 4.29897 57.8396 4.18517 57.89C3.90699 58.016 3.79319 57.6759 4.02079 57.361C4.43806 56.7816 7.76355 55.7613 10.3304 55.4338C10.735 55.396 11.1776 55.3709 11.6075 55.3583ZM11.9615 57.0461C14.8065 57.0335 15.8307 57.424 16.2606 58.7465C16.3744 59.0992 16.4503 59.3889 16.425 59.4141C15.7169 59.8549 15.1985 60.2706 14.7307 60.7744C14.4145 61.1145 14.1364 61.3916 14.1237 61.379C14.1111 61.379 13.7444 61.1145 13.3145 60.787C12.619 60.258 12.5432 60.1698 12.657 59.9053C12.9478 59.137 12.6443 57.9152 12.1765 58.0034C12.0374 58.0285 11.9868 58.2553 11.9615 58.948C11.9489 59.4393 11.8983 59.8927 11.8604 59.9305C11.8098 59.9809 11.5695 59.9683 11.3166 59.9305C10.95 59.8675 10.8741 59.8045 10.95 59.6408C11.1523 59.1748 11.1523 58.6079 10.9373 58.2931C10.6718 57.89 10.4821 58.0411 10.4189 58.6961C10.3936 58.948 10.2924 59.2881 10.1913 59.4393C10.0016 59.7164 10.0016 59.7164 7.37157 59.666C4.58979 59.603 4.04608 59.4896 4.04608 59.011C4.04608 58.6835 4.4507 58.4946 6.13242 58.016C8.74982 57.2476 9.90047 57.0587 11.9615 57.0461ZM46.6074 88.6865C46.6579 88.6865 46.7212 88.7117 46.797 88.7369C46.9741 88.8124 47.6695 88.8754 48.3397 88.8754L49.5662 88.888L49.5788 90.5884C49.5915 92.6793 49.6041 92.6415 49.2627 93.4855C48.8707 94.4553 49.0351 94.7954 49.642 94.2412L49.9076 93.9893L50.0719 94.5309C50.2616 95.1607 50.78 96.2187 50.9571 96.3195C51.0203 96.3573 51.1088 96.3321 51.1594 96.2691C51.1973 96.1935 51.2858 96.1431 51.349 96.1431C51.4755 96.1431 51.9813 96.9367 51.9813 97.1382C51.9813 97.3523 48.2006 97.3397 48.1373 97.1256C47.758 95.8534 47.0246 93.9011 46.4809 92.7423C46.1016 91.9362 45.7981 91.1175 45.7981 90.9159C45.7981 90.7144 45.9625 90.1098 46.1522 89.5808C46.3798 88.8754 46.4556 88.6865 46.6074 88.6865ZM45.2165 91.9236L45.5832 92.6163C45.7855 92.9942 46.2912 94.1278 46.6959 95.1355C47.1005 96.1431 47.4672 97.0374 47.5051 97.1256C47.5557 97.239 47.4545 97.2768 47.1764 97.2768C46.797 97.2768 46.7465 97.2264 46.1522 95.992C45.482 94.6065 45.1027 93.2209 45.1659 92.4148L45.2165 91.9236Z"
            fill="#2B2B30" />
        <path
            d="M69.949 0.000113872C67.85 -0.0124818 65.3211 1.02037 63.3865 2.84674C61.5025 4.62274 60.5415 6.65065 60.5541 8.81711C60.5541 9.54766 60.6426 10.2278 60.7691 10.6057C61.2496 12.0416 62.8428 12.5958 64.4992 11.9156C65.1314 11.6511 65.4223 11.3362 66.4212 9.88774C66.9017 9.18238 67.5592 8.36366 67.8879 8.08656C68.4316 7.60792 68.988 7.34341 69.1397 7.49456C69.1777 7.53234 68.419 9.10681 67.4454 11.0088C65.5866 14.6489 64.9544 16.2738 64.3728 18.9189C63.9934 20.6571 63.9555 23.5415 64.2969 24.5365C64.5624 25.3049 65.2452 26.1362 65.8901 26.4763C66.2694 26.6778 66.5223 26.7156 67.2683 26.6652C68.2799 26.6022 68.8236 26.3503 69.38 25.6954C69.8352 25.1537 69.949 24.5869 69.9363 22.9369C69.911 20.8712 70.126 20.2918 71.9594 17.483C72.9837 15.8959 74.286 13.5909 74.7792 12.4573C75.3482 11.1725 75.6516 9.56025 75.6516 7.79685C75.6516 5.36588 75.3355 4.40861 73.7423 2.16658C73.0089 1.13373 72.6802 0.781048 72.1744 0.503942C71.5169 0.176454 70.7709 0.0127096 69.949 0.000113872ZM69.8984 0.793643C70.3789 0.793643 70.8214 0.856622 71.2261 0.982579C72.5537 1.43602 73.186 2.60742 73.0595 4.4338C72.9331 6.28537 72.2756 8.18732 69.949 13.3264C67.5339 18.6921 66.7499 22.093 67.3569 24.5995C67.4707 25.0656 67.5339 25.5442 67.4833 25.6576C67.3695 25.9599 66.6235 25.9095 66.1177 25.5694C65.1188 24.9018 64.79 23.8186 64.9038 21.5766C64.9923 19.8635 65.3085 18.3143 65.9913 16.2864C66.5097 14.7497 66.9396 13.8176 68.8742 10.0893C70.1007 7.72128 70.3662 6.88996 70.2777 5.75635C70.1639 4.33304 69.2535 3.65287 67.8626 3.94257C66.8511 4.1567 66.2315 4.52197 65.4602 5.3281C64.5498 6.28537 63.9808 7.45677 63.5509 9.29574C63.083 11.2733 62.691 11.7141 61.9197 11.1221C61.5025 10.7946 61.199 9.82476 61.199 8.77932C61.199 7.85983 61.6921 6.34835 62.337 5.29031C63.8796 2.75857 67.3189 0.818835 69.8984 0.793643ZM74.0584 4.32044C74.1343 4.33304 74.2228 4.53457 74.3619 4.88725C74.6401 5.56742 74.6654 5.83192 74.6654 7.72128C74.6654 9.37132 74.6148 10.0011 74.4251 10.7442C74.1217 11.9408 72.8699 14.3844 71.1881 17.0421C70.4674 18.1883 69.7087 19.5235 69.5064 20.0021C69.1524 20.8208 69.1271 21.0349 69.0512 22.8613C68.988 24.7003 68.9627 24.864 68.6972 25.1285C68.4569 25.3679 68.419 25.3805 68.419 25.2041C68.419 25.0908 68.2925 24.7633 68.1535 24.4736C67.9132 24.0201 67.8879 23.8312 67.9638 22.8361C68.1408 20.2792 68.988 17.6089 71.1376 12.7848C72.756 9.14459 73.5147 7.04111 73.7423 5.59261C73.8688 4.68572 73.9446 4.29525 74.0584 4.32044ZM68.2925 4.69831C68.6087 4.69831 68.9248 4.7361 69.0006 4.78648C69.2662 4.96282 69.4305 5.44146 69.4305 6.07124V6.71362H68.9374C68.0144 6.71362 67.1419 7.46937 65.7889 9.44689C65.1314 10.4168 64.6762 10.9458 64.3601 11.1221C63.6647 11.5126 63.652 11.5 63.9302 10.845C64.0314 10.6057 64.2337 9.88774 64.3601 9.27055C64.9544 6.53728 66.535 4.69831 68.2925 4.69831ZM67.2557 28.2901C67.0408 28.2901 66.8005 28.353 66.3706 28.4916C65.928 28.6427 65.4602 28.8695 65.3337 28.9828C64.3981 29.8267 64.6257 31.7539 65.751 32.4467C66.2062 32.7364 67.2431 32.7112 67.7488 32.4089C68.5834 31.905 69.1271 30.5573 68.8742 29.5874C68.7478 29.0836 68.1787 28.5168 67.6603 28.3656C67.5086 28.3153 67.3822 28.2901 67.2557 28.2901ZM67.1798 29.1466C67.3569 29.1466 67.496 29.2221 67.6983 29.3859C68.2926 29.8519 68.0902 31.0233 67.3189 31.6279C66.6235 32.1695 65.8142 31.7539 65.5613 30.721C65.4223 30.1416 65.7004 29.6756 66.3959 29.3859C66.7752 29.2221 67.0028 29.1466 67.1798 29.1466ZM75.8792 34.4872C70.7456 34.4872 70.341 34.4998 69.8984 34.7265C69.2535 35.0414 68.6466 35.7845 67.9259 37.0945L67.2936 38.2533L67.7741 38.9082L68.6592 37.359C69.7972 35.3815 69.8225 35.3689 72.0606 35.2681C74.0964 35.1799 83.428 35.3689 86.5006 35.5578C87.6513 35.6334 89.7882 35.6837 91.2549 35.6837C94.2517 35.6837 94.9345 35.8097 95.5414 36.4269C96.1989 37.1197 96.161 37.4975 94.8712 42.3847C93.3539 48.1283 92.4309 51.2017 91.8745 52.436L91.4193 53.4437H88.9789C88.4226 53.4437 82.6061 53.5696 81.5819 53.5696L70.6571 53.4437L67.4327 53.4059C67.4327 53.4563 58.6701 53.1792 58.6701 53.1792C58.1011 53.1666 56.8493 53.1288 55.8883 53.1162C54.5986 53.091 54.2572 53.0658 54.2192 52.9525C53.979 52.9273 53.018 52.8895 53.2077 53.746L55.2308 53.7964C56.3435 53.8216 57.5068 53.8719 57.8103 53.9097L58.3666 53.9727L58.2908 54.5017C58.2149 55.0811 58.1264 61.4546 58.0126 73.9243C57.9367 82.6405 57.7597 92.3644 57.6206 95.4252L57.5321 97.2767H58.4172L58.4931 94.2286C58.5689 91.2308 58.7713 76.1663 58.923 62.7267C58.9609 58.9984 59.0242 55.9754 59.0621 56.0132C59.1 56.051 59.6437 57.2476 60.3012 58.6961C61.8565 62.1725 63.0198 64.6413 64.4739 67.5635C67.3821 73.3827 67.7615 73.7228 71.7066 73.9621C75.8666 74.214 80.1151 74.3526 86.8041 74.4281L93.5815 74.5163L93.67 77.8038C93.8091 83.3207 94.0873 87.1624 94.6816 91.9613L94.9724 94.2664L95.6173 94.8584C96.3507 95.5259 96.6541 96.055 96.6921 96.7351L96.7173 97.2012H97.6025L97.5013 96.521C97.3875 95.7023 96.9702 94.9591 96.2874 94.3419L95.7816 93.8885L95.4655 91.2686C95.023 87.6788 94.7954 84.807 94.6436 81.0913C94.4919 77.5267 94.4034 75.9522 94.3022 75.0705L94.2264 74.4659L95.5288 74.4533C98.8037 74.4281 99.967 74.1258 100.46 73.156C100.7 72.6899 100.713 72.501 100.65 71.3674C100.587 70.3597 100.473 69.7677 100.068 68.5333C99.79 67.6768 99.1577 65.5482 98.6646 63.8226C97.7163 60.5225 96.7426 57.4617 96.0978 55.7613C95.8069 54.993 95.5667 54.6151 95.1241 54.1742L94.5298 53.5948L95.0736 51.6551C95.3644 50.5845 95.7564 49.1737 95.946 48.5188C96.123 47.8638 96.5277 46.4405 96.8438 45.3698C98.3611 40.193 98.5508 38.9586 98.0071 37.7998C97.6657 37.0693 97.4381 36.8048 96.4012 35.9357C95.377 35.0792 94.6057 34.8902 92.0262 34.8398C90.8503 34.8146 87.9674 34.7265 85.6408 34.6383C83.2889 34.5627 78.9013 34.4872 75.8792 34.4872ZM96.8058 37.3842L97.084 37.9132C97.6151 38.9208 97.4001 40.2434 95.8955 45.3195C95.592 46.3523 95.0736 48.1661 94.7701 49.3501C94.454 50.5215 94.0873 51.8566 93.9356 52.3101C93.7838 52.7635 93.6068 53.1918 93.5309 53.2547C93.4045 53.3681 92.5699 53.3681 92.5699 53.2547C92.5699 53.2296 92.7217 52.8265 92.8987 52.3479C93.9608 49.5516 96.553 39.9915 96.73 38.2533L96.8058 37.3842ZM59.7575 53.9475C60.1874 53.9475 60.453 53.9979 60.453 54.0861C60.453 54.3506 62.8681 60.2832 63.6014 61.8072C64.0061 62.6386 64.7647 64.1374 65.2832 65.1199C65.8142 66.1024 66.5982 67.7146 67.0407 68.6971C67.9259 70.6872 68.3558 71.2162 69.5444 71.7956C70.0628 72.0475 70.4548 72.1357 71.1249 72.1609C71.618 72.1735 72.794 72.2743 73.7297 72.3876C77.1943 72.7907 80.0899 72.8915 88.2708 72.9041C95.5288 72.9166 96.5656 72.8914 97.6657 72.6899C98.3485 72.564 99.1324 72.3498 99.4233 72.2113L99.9417 71.9468L99.8658 72.3498C99.6888 73.2064 99.2715 73.4079 97.299 73.5842C94.3908 73.8487 77.346 73.5968 71.4663 73.2064C68.027 72.9796 67.7741 72.7151 64.5119 65.9512C62.1473 61.0389 59.0621 54.275 59.0621 53.9853C59.0621 53.9601 59.3656 53.9475 59.7575 53.9475ZM61.0599 54.0357L64.1957 54.1113C71.6433 54.2876 85.6281 54.338 89.2697 54.1868C92.7849 54.0483 93.0378 54.0483 93.6827 54.275C94.1884 54.4513 94.4919 54.6529 94.8586 55.0937C95.415 55.7487 95.9207 57.2476 97.9312 64.276C98.5128 66.3165 99.1324 68.4452 99.2968 68.9994C99.4612 69.5536 99.6382 70.2464 99.6888 70.5361C99.7773 71.0399 99.7647 71.0777 99.2968 71.38C98.9933 71.5815 98.3864 71.783 97.6783 71.909C96.7173 72.0853 95.6046 72.1231 90.6606 72.1483C83.8832 72.1735 78.8001 72.0475 75.5505 71.7578C74.2987 71.6445 72.6675 71.5059 71.9215 71.4555C70.5559 71.3422 69.6455 71.0651 69.1144 70.599C68.7225 70.2464 68.3558 69.604 67.5971 67.891C67.2051 67.0093 66.4465 65.4726 65.9154 64.4901C64.6762 62.1851 63.9176 60.5603 62.8301 57.9404C62.3496 56.7815 61.7554 55.4338 61.5025 54.93L61.0599 54.0357ZM38.3504 66.4802L38.047 66.7825C37.8826 66.9463 37.7435 67.0848 37.4527 67.3745C37.478 67.4879 37.1366 71.8838 36.9848 73.1812L36.909 73.8361L36.1124 73.9747C35.6824 74.0503 34.8353 74.1132 34.241 74.1132C33.3306 74.1132 33.103 74.0629 32.7363 73.8235C32.319 73.5464 32.1926 73.2819 32.2937 72.6647C32.319 72.5388 32.3064 71.7578 32.5213 71.5311L32.4834 71.5563C32.1673 71.7704 31.8132 71.9972 31.4845 72.1735L31.4465 72.1987L31.4339 72.967C31.4213 73.8361 31.6741 74.2518 32.4455 74.6549C33.0398 74.9697 34.5065 75.0579 35.8468 74.8816C36.34 74.8186 36.7572 74.7808 36.7699 74.7934C36.7952 74.8186 36.6687 76.4057 36.4917 78.3328C35.9986 83.5852 35.4043 91.3316 35.4043 92.4904C35.4043 93.3469 35.3537 93.5988 35.1008 94.027C34.6456 94.7954 34.3801 95.9416 34.4686 96.6596L34.5444 97.2515H35.948C35.7962 97.2138 35.6824 97.0248 35.5939 96.9492C35.2652 96.6973 35.2525 96.6344 35.3284 95.992C35.3663 95.6141 35.5813 94.9717 35.7962 94.5687C36.0618 94.0648 36.1756 93.6492 36.1756 93.2461C36.1756 92.1251 37.0228 81.7085 37.8067 73.2693C37.9458 71.8082 38.1228 69.6921 38.1987 68.5459L38.3504 66.4802ZM66.9775 82.6279C65.2452 82.6279 63.7911 82.6909 63.4118 82.7917C62.8048 82.968 62.1347 83.5852 62.0335 84.089C61.8818 84.807 61.7048 87.7796 61.7048 89.6437C61.7048 93.7374 61.9956 94.1404 65.182 94.2664C69.5191 94.4427 74.3619 94.2915 75.5758 93.9389C76.3977 93.6996 77.0931 93.1202 77.4219 92.377C77.6495 91.8732 77.6748 91.4323 77.738 88.2204C77.7886 85.1345 77.7759 84.5551 77.5989 84.152C77.2069 83.2325 76.5115 83.0562 72.2629 82.7791C70.7456 82.6657 68.7225 82.6153 66.9775 82.6279ZM65.9913 83.4341C68.596 83.4467 76.0436 83.8749 76.4735 84.0512C76.9667 84.2528 77.0552 84.9707 76.9667 87.8929C76.8655 91.2056 76.8023 91.7724 76.4609 92.2762C76.0057 92.9564 75.5125 93.1076 73.3377 93.2461C70.8847 93.3973 67.3821 93.4602 65.0176 93.3721C63.2348 93.3091 63.1968 93.2965 62.906 92.969C62.691 92.7297 62.5899 92.4022 62.5267 91.8354C62.4129 90.8151 62.691 84.4669 62.8554 84.1646C63.1589 83.5978 63.5635 83.497 65.5361 83.4467C65.6625 83.4341 65.8142 83.4341 65.9913 83.4341ZM19.3711 85.1219C19.3711 85.1345 19.3584 85.1219 19.3711 85.1219C19.4343 85.1345 19.4722 85.1345 19.4469 85.1345C19.3964 85.1219 19.3711 85.1219 19.3711 85.1219ZM19.3711 85.1345C19.3331 85.1345 19.2952 85.1345 19.2826 85.1345C18.4607 85.1975 18.4607 85.3738 19.232 89.2911C19.5987 91.1804 19.9274 92.8305 19.9654 92.9438C20.0159 93.1202 19.9527 93.1453 19.5607 93.0824C18.7768 92.9564 18.6756 93.1453 18.7894 94.5561C18.9285 96.1431 18.9032 97.05 18.7136 97.2767H18.7009C18.9791 97.2767 19.2573 97.2767 19.5228 97.2767C19.5228 97.2641 19.5228 97.2515 19.5228 97.239C19.6366 96.8863 19.6366 96.1053 19.5354 94.9717C19.4343 93.7877 19.4849 93.7374 20.155 94.3167C20.7114 94.808 21.0022 95.5511 21.0275 96.584L21.0528 97.2767H21.8747V96.6721C21.8747 95.6645 21.6218 94.808 21.116 94.1026C20.7873 93.6492 20.6861 93.2965 20.4711 92.0747C20.332 91.256 20.0539 89.6941 19.8516 88.5983C19.6492 87.5025 19.4849 86.457 19.4849 86.2681C19.4849 85.9532 19.5102 85.9658 20.1171 86.5578C20.9769 87.4017 21.5586 88.2708 21.9505 89.3037C22.3931 90.4751 22.5322 91.1804 22.6966 93.0824C22.7851 94.1656 22.8862 94.7324 23 94.7576C23.2656 94.8458 23.4173 94.2034 23.4173 93.0194C23.4173 91.6968 23.6955 90.7648 23.961 91.2056C24.0622 91.3693 24.1127 92.0621 24.1127 93.1579C24.1127 94.7702 24.0875 94.9213 23.6702 96.1179L23.2782 97.2515H24.1254C24.176 97.1004 24.2518 96.7729 24.3656 96.4454C25.2887 93.8759 25.0611 90.135 23.9863 90.135C23.7966 90.135 23.5437 90.2231 23.4299 90.3239C23.2403 90.5002 23.2023 90.4499 23 89.7319C22.6207 88.3968 21.9505 87.2757 20.8252 86.1295C20.1171 85.462 19.4469 85.1975 19.3711 85.1345ZM73.186 85.9784C72.5285 85.9658 71.7066 85.991 70.7582 86.0414C69.4432 86.1169 67.458 86.2051 66.3579 86.2555C64.2842 86.3437 64.0061 86.4318 64.3728 86.8727C64.5624 87.112 64.9418 87.112 70.6824 86.8727C75.1838 86.6838 75.7149 86.6208 75.2091 86.2429C74.9688 86.0792 74.286 85.991 73.186 85.9784ZM109.185 87.0742C107.579 87.0742 104.721 90.0468 103.482 93.0068L103.014 94.1278L102.711 93.5862C102.344 92.9312 102.091 92.7297 101.636 92.7297C101.371 92.7297 101.231 92.8305 101.067 93.1328C100.776 93.6744 100.776 95.6897 101.08 96.5084C101.193 96.8233 101.32 97.239 101.32 97.239H102.154C102.167 97.239 102.142 97.2264 102.142 97.2264C101.775 96.6218 101.472 93.6114 101.775 93.6114C101.838 93.6114 102.091 93.9263 102.344 94.3042C102.736 94.8961 102.812 95.0977 102.812 95.7149C102.812 96.9493 103.217 97.1382 103.381 95.9794C103.672 93.8507 105.316 90.8403 107.086 89.1777C107.958 88.359 109.008 87.7292 109.261 87.8803C109.615 88.1071 109.324 89.3288 108.199 92.2007C107.832 93.1579 107.402 94.3167 107.238 94.808C107.086 95.2866 106.757 95.929 106.529 96.2313C106.289 96.5336 106.1 96.8989 106.1 97.0248C106.1 97.0626 106.074 97.2138 106.074 97.2138C106.074 97.2138 106.669 97.2138 106.732 97.2138C106.732 97.2138 106.719 97.1634 106.719 97.1508C106.719 96.9744 108.085 95.7905 108.376 95.7149C108.666 95.6393 108.78 95.9794 108.717 96.7099L108.679 97.2012L109.261 97.176H109.248C109.248 97.1256 109.311 96.8359 109.374 96.5336C109.615 95.5007 109.134 94.7702 108.325 94.9339C108.047 94.9843 107.971 94.9591 108.009 94.8584C108.047 94.7702 108.451 93.7374 108.919 92.5659C109.906 90.072 110.31 88.6487 110.196 88.0189C110.095 87.4017 109.729 87.0742 109.185 87.0742ZM69.2535 89.7193C68.9627 89.7193 68.5328 89.7319 67.8753 89.7571C65.9027 89.8327 64.3854 90.0216 64.1957 90.2231C64.1325 90.2861 64.1199 90.4247 64.1705 90.5506C64.2463 90.7396 64.3981 90.7522 65.4855 90.6766C67.2684 90.5506 69.203 90.3365 69.5317 90.2105C69.6834 90.1476 69.8099 90.009 69.8099 89.8957C69.8099 89.7697 69.734 89.7193 69.2535 89.7193Z"
            fill="#FFC007" />
    </g>
</svg>
